# xmcd CD database file
#
# Track frame offsets:
#	183
#	18058
#	40758
#	67733
#	86433
#	99183
#	123333
#	141033
#	164883
#	184758
#	208683
#
# Disc length: 3049 seconds
#
# Revision: 0
# Processed by: cddbd v1.5.2PL0 Copyright (c) Steve Scherf et al.
# Submitted via: CDex 1.70beta2
#
DISCID=870be70b
DTITLE=Blue Box - Captured Dancefloor
DYEAR=1989
DGENRE=Jazz
TTITLE0=perpetuum mobile
TTITLE1=dreamless nights
TTITLE2=little prince
TTITLE3=network
TTITLE4=going
TTITLE5=dance floor
TTITLE6=criss cross
TTITLE7=cheers
TTITLE8=thumbs up
TTITLE9=samba
TTITLE10=cartoon
EXTD=YEAR: 1989
EXTT0=
EXTT1=
EXTT2=
EXTT3=
EXTT4=
EXTT5=
EXTT6=
EXTT7=
EXTT8=
EXTT9=
EXTT10=
PLAYORDER=
